<svg xmlns="http://www.w3.org/2000/svg" viewBox="0 0 400 400" width="400" height="400">
<defs><linearGradient id="b" x1="0" y1="0" x2="0" y2="1"><stop offset="0" stop-color="#FFB0C6"/><stop offset="1" stop-color="#F27A9C"/></linearGradient><radialGradient id="y" cx=".4" cy=".35" r=".75"><stop offset="0" stop-color="#FFF0A8"/><stop offset="1" stop-color="#FFC233"/></radialGradient></defs>
<ellipse cx="200" cy="356" rx="110" ry="13" fill="#1C2340" opacity=".08"/>
<path d="M110 70 H290 Q330 70 330 110 V230 Q330 270 290 270 H190 L126 326 L142 270 H110 Q70 270 70 230 V110 Q70 70 110 70 Z" fill="url(#b)"/>
<path d="M200 98 L200 82 M150 116 L140 104 M250 116 L260 104" stroke="#FFD24D" stroke-width="8" stroke-linecap="round"/>
<circle cx="200" cy="160" r="46" fill="url(#y)"/>
<path d="M184 200 H216 V222 Q216 232 206 232 H194 Q184 232 184 222 Z" fill="#B3C7DD"/>
<path d="M184 212 H216" stroke="#8FA5BE" stroke-width="4"/>
<ellipse cx="184" cy="144" rx="10" ry="18" fill="#fff" opacity=".55" transform="rotate(20 184 144)"/>
</svg>
