<svg xmlns="http://www.w3.org/2000/svg" viewBox="0 0 400 400" width="400" height="400">
<defs><linearGradient id="r" x1="0" y1="0" x2="0" y2="1"><stop offset="0" stop-color="#FF7A4F"/><stop offset="1" stop-color="#E5482A"/></linearGradient></defs>
<ellipse cx="200" cy="352" rx="150" ry="13" fill="#1C2340" opacity=".08"/>
<rect x="256" y="96" width="30" height="70" rx="4" fill="#C8401A"/>
<rect x="94" y="176" width="212" height="164" rx="6" fill="#FFF4E6"/>
<path d="M62 192 L200 76 L338 192 Q342 202 330 202 H70 Q58 202 62 192 Z" fill="url(#r)"/>
<rect x="114" y="226" width="50" height="44" rx="8" fill="#BFE3FA"/>
<rect x="236" y="226" width="50" height="44" rx="8" fill="#BFE3FA"/>
<path d="M139 226 V270 M114 248 H164 M261 226 V270 M236 248 H286" stroke="#fff" stroke-width="4"/>
<rect x="176" y="252" width="48" height="88" rx="10" fill="#2F86CF"/>
<circle cx="213" cy="298" r="4.5" fill="#FFD24D"/>
</svg>
