<svg xmlns="http://www.w3.org/2000/svg" viewBox="0 0 400 400" width="400" height="400">
<defs><linearGradient id="w" x1="0" y1="0" x2="0" y2="1"><stop offset="0" stop-color="#FF8FA6"/><stop offset="1" stop-color="#D9456A"/></linearGradient></defs>
<ellipse cx="200" cy="350" rx="90" ry="12" fill="#1C2340" opacity=".08"/>
<ellipse cx="200" cy="338" rx="74" ry="14" fill="#EAF6FE" stroke="#BFE3FA" stroke-width="6"/>
<rect x="191" y="236" width="18" height="104" rx="8" fill="#EAF6FE" stroke="#BFE3FA" stroke-width="5"/>
<path d="M116 52 H284 C292 120 292 176 262 214 C246 234 224 242 200 242 C176 242 154 234 138 214 C108 176 108 120 116 52 Z" fill="#F2FAFF" stroke="#BFE3FA" stroke-width="6" stroke-linejoin="round"/>
<path d="M112 140 Q156 128 200 140 T288 140 C288 176 278 198 262 214 C246 232 224 238 200 238 C176 238 154 232 138 214 C122 198 112 176 112 140 Z" fill="url(#w)"/>
<path d="M140 72 C134 120 136 170 156 204" stroke="#fff" stroke-width="10" fill="none" stroke-linecap="round" opacity=".75"/>
</svg>
